<?xml version="1.0" standalone="no"?>
<!DOCTYPE svg PUBLIC "-//W3C//DTD SVG 20010904//EN"
 "http://www.w3.org/TR/2001/REC-SVG-20010904/DTD/svg10.dtd">
<svg version="1.0" xmlns="http://www.w3.org/2000/svg"
 width="196.000000pt" height="196.000000pt" viewBox="0 0 196.000000 196.000000"
 preserveAspectRatio="xMidYMid meet">
<metadata>
Created by potrace 1.11, written by Peter Selinger 2001-2013
</metadata>
<g transform="translate(0.000000,196.000000) scale(0.100000,-0.100000)"
fill="#000000" stroke="none">
<path d="M874 1949 c-2 -3 -19 -5 -38 -4 -21 1 -32 -3 -29 -9 4 -5 -1 -7 -10
-3 -9 3 -19 2 -23 -4 -3 -6 -12 -8 -20 -5 -8 3 -14 1 -14 -4 0 -5 -12 -13 -27
-16 -39 -9 -97 -44 -144 -86 -10 -10 -21 -18 -24 -18 -3 0 -5 -2 -6 -4 0 -2
-25 -30 -55 -62 -30 -32 -54 -64 -54 -70 0 -6 -7 -17 -15 -24 -8 -7 -12 -16
-9 -21 3 -5 2 -9 -3 -9 -4 0 -14 -15 -22 -32 -7 -18 -19 -44 -25 -58 -6 -14
-11 -37 -11 -52 1 -15 -2 -25 -6 -22 -4 2 -8 -4 -8 -13 -1 -10 -2 -56 -4 -103
-2 -47 0 -93 5 -102 6 -13 5 -18 -4 -18 -8 -1 -5 -7 6 -15 11 -8 15 -15 8 -15
-8 0 -8 -9 -1 -32 25 -78 71 -178 81 -178 5 0 6 -4 3 -10 -3 -5 -1 -10 5 -10
6 0 9 -4 5 -9 -3 -5 4 -12 15 -16 11 -4 18 -10 15 -15 -6 -9 40 -60 54 -60 14
0 36 -59 23 -61 -4 -1 -21 -2 -39 -4 -44 -4 -139 -54 -174 -92 -16 -18 -27
-33 -24 -33 3 0 1 -8 -4 -19 -8 -14 -5 -23 14 -40 28 -23 40 -27 29 -9 -5 7
-3 8 6 3 8 -5 17 -2 24 8 17 22 93 60 106 52 5 -3 10 -2 10 3 0 15 34 9 45 -8
5 -8 10 -54 10 -101 2 -80 19 -149 38 -149 5 0 6 -4 2 -9 -3 -6 3 -14 12 -20
10 -5 15 -13 11 -17 -5 -4 -3 -13 3 -21 9 -10 8 -13 -1 -13 -10 0 -10 -3 0
-15 7 -8 8 -15 3 -15 -5 0 -9 -12 -10 -27 -1 -45 -12 -77 -29 -90 -9 -6 -13
-16 -9 -22 3 -6 2 -11 -4 -11 -21 0 -40 -31 -35 -57 3 -15 7 -29 8 -30 8 -8
86 -9 86 -2 0 5 7 5 17 2 11 -4 14 -3 9 5 -4 8 -2 10 7 6 8 -3 21 2 30 10 9 9
20 16 26 16 5 0 13 9 16 20 3 11 11 20 16 20 5 0 9 6 9 13 0 6 9 23 19 36 10
13 16 32 14 42 -4 14 0 19 13 19 16 0 17 2 4 10 -11 8 -9 9 10 6 14 -3 25 -5
25 -6 0 -1 15 -3 32 -4 18 -1 36 -5 39 -9 4 -3 15 -2 25 4 14 7 19 6 19 -2 0
-8 5 -7 17 2 15 12 16 12 8 -1 -7 -12 -6 -13 6 -4 8 5 25 9 39 7 31 -4 52 -5
65 -3 22 5 34 -1 30 -12 -2 -7 -7 -26 -9 -43 -3 -16 -10 -31 -16 -33 -5 -2
-10 -10 -10 -18 0 -8 -5 -14 -11 -14 -5 0 -8 -4 -5 -9 3 -5 -6 -16 -20 -26
-18 -12 -23 -20 -16 -27 6 -6 8 -17 5 -24 -3 -8 0 -14 7 -14 6 0 8 -5 5 -10
-4 -6 12 -10 40 -10 34 0 44 3 39 13 -5 7 0 6 11 -3 11 -9 16 -10 11 -2 -6 11
4 15 31 11 3 0 10 6 15 15 5 9 13 14 18 11 5 -3 11 4 15 15 3 11 11 20 16 20
6 0 7 5 4 10 -3 6 -1 10 5 10 13 0 39 59 42 98 1 6 5 12 10 12 5 0 7 9 3 19
-4 13 0 23 12 30 17 10 17 10 -1 11 -17 0 -18 1 -1 26 11 18 12 24 4 18 -12
-6 -12 -5 0 9 7 9 10 17 6 17 -5 0 5 11 21 25 16 14 25 25 20 25 -6 0 -3 6 5
13 26 21 35 59 34 150 0 48 3 87 8 87 4 0 5 5 2 10 -3 6 -3 10 2 11 60 6 74 6
78 -2 4 -5 14 -9 24 -9 10 0 26 -11 37 -24 10 -14 21 -23 26 -20 4 3 8 0 8 -5
0 -16 27 -13 55 5 22 14 38 63 17 50 -4 -2 -14 9 -21 25 -7 16 -16 27 -21 24
-4 -3 -10 2 -14 10 -3 8 -12 15 -21 15 -8 0 -15 5 -15 10 0 6 -7 10 -15 10 -8
0 -15 4 -15 8 0 4 -10 8 -22 9 -11 1 -24 6 -27 11 -3 5 -23 8 -43 7 -24 -2
-39 2 -42 11 -6 15 35 64 53 64 7 0 10 4 7 8 -3 5 3 15 12 24 26 23 53 58 45
58 -4 0 2 7 13 16 10 8 12 13 4 9 -10 -4 -9 -2 3 8 9 8 17 21 17 30 0 8 5 17
10 19 6 2 12 13 13 26 0 12 5 22 10 22 4 0 5 5 2 10 -3 6 -2 10 3 10 5 0 8 13
7 30 -1 16 1 27 6 24 10 -6 10 -6 15 140 2 64 -1 117 -7 129 -7 12 -7 17 -1
13 6 -4 8 2 5 14 -3 11 -8 18 -12 15 -4 -2 -7 6 -6 17 1 12 -5 34 -12 50 -8
15 -11 33 -7 39 4 8 3 9 -4 5 -8 -5 -12 0 -12 13 0 12 -4 21 -9 21 -5 0 -14
12 -20 28 -6 15 -25 43 -41 62 -17 19 -30 39 -30 43 0 5 -4 5 -10 2 -5 -3 -10
-1 -10 5 0 6 -16 26 -35 46 -19 19 -35 32 -35 29 0 -4 -7 1 -16 9 -8 9 -20 13
-26 10 -6 -4 -8 -2 -5 3 8 12 -67 56 -77 46 -3 -4 -6 -1 -6 5 0 7 -9 12 -20
12 -11 0 -20 5 -20 12 0 6 -3 9 -6 5 -4 -3 -22 0 -41 8 -24 10 -32 11 -26 2 5
-9 3 -9 -9 0 -8 7 -18 10 -21 6 -4 -3 -7 0 -7 8 0 12 -2 12 -9 0 -5 -8 -14
-10 -22 -5 -16 9 -189 12 -195 3z m71 -100 c-4 -21 -4 -21 15 -4 17 15 22 16
37 4 11 -9 14 -10 9 -2 -5 9 -2 11 9 7 8 -4 21 -1 28 4 10 9 13 5 11 -18 -1
-17 2 -28 7 -25 4 3 6 12 2 21 -4 12 1 13 28 8 19 -4 42 -7 51 -8 9 0 14 -5
11 -10 -4 -5 3 -7 15 -4 12 4 22 2 22 -3 0 -5 8 -9 19 -9 10 0 24 -7 31 -15 7
-8 17 -12 23 -8 6 4 8 0 4 -11 -4 -10 -3 -15 3 -11 8 5 20 0 59 -22 2 -2 -2
-11 -10 -20 -13 -16 -12 -17 4 -4 12 9 17 10 17 2 0 -7 4 -10 9 -7 4 3 17 -4
27 -17 14 -16 14 -18 2 -9 -12 10 -18 10 -24 1 -4 -7 -3 -9 3 -6 15 10 66 -40
59 -58 -5 -13 -1 -15 16 -9 21 6 22 5 8 -11 -8 -11 -10 -16 -3 -12 7 5 17 -1
23 -14 10 -17 9 -20 -1 -14 -8 6 -10 4 -5 -4 5 -7 15 -10 25 -6 12 5 13 3 4
-6 -9 -9 -8 -15 3 -26 8 -8 12 -19 9 -24 -4 -5 -1 -9 5 -9 6 0 10 -8 8 -17 -1
-10 1 -24 6 -32 14 -22 16 -101 3 -101 -8 0 -8 -3 -2 -8 14 -10 20 -56 6 -48
-6 4 -11 2 -11 -3 0 -6 4 -11 9 -11 11 0 5 -84 -6 -87 -5 -2 -8 -17 -7 -33 1
-17 -2 -27 -7 -24 -5 3 -9 -4 -9 -16 0 -12 -4 -19 -9 -16 -4 3 -7 -6 -5 -19 1
-14 -2 -23 -7 -19 -8 5 -13 -10 -10 -30 1 -5 -4 -6 -12 -3 -7 3 -14 -1 -14 -9
0 -7 5 -11 11 -8 6 3 4 0 -5 -8 -9 -7 -18 -20 -22 -28 -3 -8 -6 1 -7 20 -1 19
-3 45 -4 58 -2 12 1 22 6 22 5 0 6 5 2 11 -11 19 -10 299 1 299 6 0 2 5 -9 11
-15 9 -16 13 -5 20 10 6 11 9 2 9 -14 0 -18 36 -5 43 4 2 1 2 -5 1 -7 -2 -17
5 -23 16 -13 24 -13 30 1 30 5 0 8 -4 4 -9 -3 -5 -1 -12 4 -15 5 -4 8 2 6 11
-2 10 -4 21 -4 25 -1 4 -8 5 -16 2 -11 -4 -20 5 -30 30 -8 20 -19 35 -23 35
-19 -3 -23 2 -13 15 9 11 8 14 -6 12 -11 0 -17 5 -17 16 1 10 -2 16 -6 13 -5
-3 -11 -1 -15 5 -4 6 -12 7 -18 4 -7 -4 -2 3 11 15 25 25 26 27 12 36 -6 4 -9
1 -8 -5 4 -16 -30 -38 -40 -25 -10 15 -49 35 -67 35 -9 0 -14 4 -11 8 3 5 -5
8 -17 7 -12 -1 -40 6 -62 17 l-40 19 25 -21 c22 -18 22 -20 3 -11 -12 6 -29 8
-39 4 -14 -5 -16 -2 -12 15 4 12 2 20 -3 16 -5 -3 -9 -13 -10 -22 0 -11 -2
-13 -6 -4 -4 10 -8 10 -20 1 -12 -10 -17 -10 -25 2 -7 11 -11 11 -15 1 -2 -6
-9 -10 -14 -6 -5 3 -9 -1 -9 -8 0 -9 -3 -9 -10 2 -7 11 -10 11 -10 2 0 -10 -5
-10 -21 -1 -17 9 -20 8 -14 -2 6 -9 3 -10 -10 -5 -14 5 -15 4 -7 -7 9 -10 5
-13 -16 -12 -17 0 -26 -5 -24 -13 2 -10 -2 -10 -18 -2 -16 9 -19 8 -13 -7 5
-12 2 -15 -10 -10 -9 3 -19 1 -23 -5 -5 -7 -2 -8 7 -4 8 4 5 1 -5 -8 -10 -8
-23 -13 -28 -10 -5 3 -7 0 -6 -7 2 -7 -4 -14 -12 -14 -8 0 -14 -6 -13 -13 2
-7 -5 -12 -15 -13 -10 0 -12 -3 -4 -6 20 -8 14 -23 -10 -23 -19 0 -20 -2 -8
-10 10 -7 11 -10 2 -10 -7 0 -18 -11 -24 -25 -6 -14 -17 -24 -24 -21 -8 3 -16
0 -20 -6 -4 -6 -3 -8 2 -5 6 3 16 2 24 -4 10 -6 11 -9 3 -9 -7 0 -13 -7 -13
-16 0 -9 -5 -12 -12 -8 -8 5 -7 0 2 -11 14 -17 13 -18 -3 -12 -15 6 -16 4 -7
-13 5 -10 6 -21 2 -24 -5 -3 -8 -39 -8 -81 1 -44 -3 -75 -9 -75 -5 0 -4 -4 3
-9 8 -4 14 -12 14 -16 0 -4 -6 -12 -14 -16 -7 -5 -8 -9 -2 -9 13 0 14 -31 1
-47 -5 -8 -6 -13 0 -13 5 0 9 -13 9 -30 0 -16 -4 -30 -8 -30 -5 0 -6 -5 -3
-10 4 -6 8 -26 9 -45 2 -24 0 -32 -10 -28 -8 3 -12 8 -9 12 2 4 -5 13 -15 21
-10 8 -17 17 -14 22 3 4 1 8 -5 8 -5 0 -8 9 -6 20 2 11 0 18 -6 15 -5 -4 -9 1
-9 10 0 9 -4 14 -8 11 -5 -3 -9 1 -9 9 0 8 4 12 9 9 4 -3 8 0 8 5 0 6 -8 11
-17 11 -14 0 -15 2 -5 9 11 6 10 11 -3 25 -12 12 -13 16 -3 16 10 0 9 3 -2 10
-14 9 -13 11 9 14 5 0 13 5 18 10 4 5 3 7 -3 3 -19 -11 -39 27 -38 73 3 106 4
111 16 104 10 -5 10 -4 2 5 -13 14 -7 54 6 46 5 -3 11 -1 15 5 3 5 -1 10 -10
10 -9 0 -13 5 -10 10 4 6 10 8 14 5 5 -2 7 9 6 25 -2 22 1 28 9 21 8 -7 12 -2
14 16 1 14 6 31 12 38 5 6 6 16 2 20 -4 5 -1 5 6 1 8 -5 16 3 23 23 6 17 16
31 21 31 6 0 4 -8 -3 -17 -11 -13 -11 -15 -1 -9 7 4 17 19 22 32 7 17 15 22
27 18 15 -5 15 -4 3 5 -13 9 -12 12 5 24 10 8 26 12 35 10 10 -4 8 0 -5 11
-11 10 -15 15 -10 13 17 -8 73 20 84 42 7 12 17 18 26 15 8 -4 15 -1 15 7 0 7
3 9 7 6 3 -4 15 1 26 10 11 10 17 13 14 7 -4 -7 -1 -14 7 -17 9 -4 12 0 9 11
-3 13 3 17 21 17 15 0 26 -4 26 -10 0 -5 4 -4 9 4 12 18 39 23 48 9 4 -7 1 -8
-7 -3 -9 6 -11 4 -5 -5 7 -11 12 -9 23 8 18 28 22 28 17 1z"/>
<path d="M830 1819 c0 -5 5 -7 10 -4 6 3 10 8 10 11 0 2 -4 4 -10 4 -5 0 -10
-5 -10 -11z"/>
<path d="M970 1819 c0 -5 5 -7 10 -4 6 3 10 8 10 11 0 2 -4 4 -10 4 -5 0 -10
-5 -10 -11z"/>
<path d="M1095 1820 c3 -5 8 -10 11 -10 2 0 4 5 4 10 0 6 -5 10 -11 10 -5 0
-7 -4 -4 -10z"/>
<path d="M1110 1797 c0 -2 6 -10 14 -16 11 -9 16 -9 22 1 4 7 4 10 -1 6 -4 -4
-14 -3 -22 3 -7 6 -13 9 -13 6z"/>
<path d="M815 1780 c3 -5 8 -10 11 -10 2 0 4 5 4 10 0 6 -5 10 -11 10 -5 0 -7
-4 -4 -10z"/>
<path d="M1175 1780 c3 -5 8 -10 11 -10 2 0 4 5 4 10 0 6 -5 10 -11 10 -5 0
-7 -4 -4 -10z"/>
<path d="M1070 1761 c0 -6 4 -13 10 -16 6 -3 7 1 4 9 -7 18 -14 21 -14 7z"/>
<path d="M1250 1739 c0 -5 5 -7 10 -4 6 3 10 8 10 11 0 2 -4 4 -10 4 -5 0 -10
-5 -10 -11z"/>
<path d="M695 1700 c-3 -5 -1 -10 4 -10 6 0 11 5 11 10 0 6 -2 10 -4 10 -3 0
-8 -4 -11 -10z"/>
<path d="M1291 1653 c-1 -7 8 -17 19 -23 16 -9 18 -8 14 5 -3 8 -10 13 -14 10
-5 -3 -11 1 -13 7 -4 10 -6 10 -6 1z"/>
<path d="M1355 1609 c-4 -6 -5 -12 -2 -15 2 -3 7 2 10 11 7 17 1 20 -8 4z"/>
<path d="M530 1580 c0 -5 5 -10 11 -10 5 0 7 5 4 10 -3 6 -8 10 -11 10 -2 0
-4 -4 -4 -10z"/>
<path d="M1347 1549 c7 -7 15 -10 18 -7 3 3 -2 9 -12 12 -14 6 -15 5 -6 -5z"/>
<path d="M1380 1546 c0 -2 8 -10 18 -17 15 -13 16 -12 3 4 -13 16 -21 21 -21
13z"/>
<path d="M1470 1480 c0 -5 5 -10 11 -10 5 0 7 5 4 10 -3 6 -8 10 -11 10 -2 0
-4 -4 -4 -10z"/>
<path d="M495 1460 c3 -5 8 -10 11 -10 2 0 4 5 4 10 0 6 -5 10 -11 10 -5 0 -7
-4 -4 -10z"/>
<path d="M495 1421 c-3 -5 -2 -12 3 -15 5 -3 9 1 9 9 0 17 -3 19 -12 6z"/>
<path d="M474 1382 c4 -3 14 -7 22 -8 9 -1 13 0 10 4 -4 3 -14 7 -22 8 -9 1
-13 0 -10 -4z"/>
<path d="M1450 1379 c0 -5 5 -7 10 -4 6 3 10 8 10 11 0 2 -4 4 -10 4 -5 0 -10
-5 -10 -11z"/>
<path d="M1430 1299 c0 -5 5 -7 10 -4 6 3 10 8 10 11 0 2 -4 4 -10 4 -5 0 -10
-5 -10 -11z"/>
<path d="M455 1260 c3 -5 8 -10 11 -10 2 0 4 5 4 10 0 6 -5 10 -11 10 -5 0 -7
-4 -4 -10z"/>
<path d="M495 1220 c3 -5 8 -10 11 -10 2 0 4 5 4 10 0 6 -5 10 -11 10 -5 0 -7
-4 -4 -10z"/>
<path d="M1450 1219 c0 -5 5 -7 10 -4 6 3 10 8 10 11 0 2 -4 4 -10 4 -5 0 -10
-5 -10 -11z"/>
<path d="M1495 1220 c3 -5 8 -10 11 -10 2 0 4 5 4 10 0 6 -5 10 -11 10 -5 0
-7 -4 -4 -10z"/>
</g>
</svg>
